TITLE ""
FILE "1Q_j_2142-2155.mp3" MP3
  TRACK 01 AUDIO
    TITLE "1Q_j_2142-2155_01"
    INDEX 01 00:00:00
  TRACK 02 AUDIO
    TITLE "1Q_j_2142-2155_02"
    INDEX 01 00:01:12
  TRACK 03 AUDIO
    TITLE "1Q_j_2142-2155_03"
    INDEX 01 00:01:22
  TRACK 04 AUDIO
    TITLE "1Q_j_2142-2155_04"
    INDEX 01 00:03:69
  TRACK 05 AUDIO
    TITLE "1Q_j_2142-2155_05"
    INDEX 01 00:04:02
  TRACK 06 AUDIO
    TITLE "1Q_j_2142-2155_06"
    INDEX 01 00:11:10
  TRACK 07 AUDIO
    TITLE "1Q_j_2142-2155_07"
    INDEX 01 00:11:59
  TRACK 08 AUDIO
    TITLE "1Q_j_2142-2155_08"
    INDEX 01 00:13:07
  TRACK 09 AUDIO
    TITLE "1Q_j_2142-2155_09"
    INDEX 01 00:13:15
  TRACK 10 AUDIO
    TITLE "1Q_j_2142-2155_10"
    INDEX 01 00:16:31
  TRACK 11 AUDIO
    TITLE "1Q_j_2142-2155_11"
    INDEX 01 00:16:39
  TRACK 12 AUDIO
    TITLE "1Q_j_2142-2155_12"
    INDEX 01 00:22:22
  TRACK 13 AUDIO
    TITLE "1Q_j_2142-2155_13"
    INDEX 01 00:22:67
  TRACK 14 AUDIO
    TITLE "1Q_j_2142-2155_14"
    INDEX 01 00:24:07
  TRACK 15 AUDIO
    TITLE "1Q_j_2142-2155_15"
    INDEX 01 00:24:17
  TRACK 16 AUDIO
    TITLE "1Q_j_2142-2155_16"
    INDEX 01 00:27:42
  TRACK 17 AUDIO
    TITLE "1Q_j_2142-2155_17"
    INDEX 01 00:27:50
  TRACK 18 AUDIO
    TITLE "1Q_j_2142-2155_18"
    INDEX 01 00:35:65
  TRACK 19 AUDIO
    TITLE "1Q_j_2142-2155_19"
    INDEX 01 00:36:36
  TRACK 20 AUDIO
    TITLE "1Q_j_2142-2155_20"
    INDEX 01 00:37:39
  TRACK 21 AUDIO
    TITLE "1Q_j_2142-2155_21"
    INDEX 01 00:37:57
  TRACK 22 AUDIO
    TITLE "1Q_j_2142-2155_22"
    INDEX 01 00:39:03
  TRACK 23 AUDIO
    TITLE "1Q_j_2142-2155_23"
    INDEX 01 00:39:08
  TRACK 24 AUDIO
    TITLE "1Q_j_2142-2155_24"
    INDEX 01 00:43:36
  TRACK 25 AUDIO
    TITLE "1Q_j_2142-2155_25"
    INDEX 01 00:44:06
  TRACK 26 AUDIO
    TITLE "1Q_j_2142-2155_26"
    INDEX 01 00:45:13
  TRACK 27 AUDIO
    TITLE "1Q_j_2142-2155_27"
    INDEX 01 00:45:33
  TRACK 28 AUDIO
    TITLE "1Q_j_2142-2155_28"
    INDEX 01 00:47:27
  TRACK 29 AUDIO
    TITLE "1Q_j_2142-2155_29"
    INDEX 01 00:47:35
  TRACK 30 AUDIO
    TITLE "1Q_j_2142-2155_30"
    INDEX 01 00:53:67
  TRACK 31 AUDIO
    TITLE "1Q_j_2142-2155_31"
    INDEX 01 00:54:37
  TRACK 32 AUDIO
    TITLE "1Q_j_2142-2155_32"
    INDEX 01 00:55:43
  TRACK 33 AUDIO
    TITLE "1Q_j_2142-2155_33"
    INDEX 01 00:55:62
  TRACK 34 AUDIO
    TITLE "1Q_j_2142-2155_34"
    INDEX 01 00:56:60
  TRACK 35 AUDIO
    TITLE "1Q_j_2142-2155_35"
    INDEX 01 00:56:68
  TRACK 36 AUDIO
    TITLE "1Q_j_2142-2155_36"
    INDEX 01 01:03:44
  TRACK 37 AUDIO
    TITLE "1Q_j_2142-2155_37"
    INDEX 01 01:04:14
  TRACK 38 AUDIO
    TITLE "1Q_j_2142-2155_38"
    INDEX 01 01:05:43
  TRACK 39 AUDIO
    TITLE "1Q_j_2142-2155_39"
    INDEX 01 01:05:53
  TRACK 40 AUDIO
    TITLE "1Q_j_2142-2155_40"
    INDEX 01 01:07:40
  TRACK 41 AUDIO
    TITLE "1Q_j_2142-2155_41"
    INDEX 01 01:07:48
  TRACK 42 AUDIO
    TITLE "1Q_j_2142-2155_42"
    INDEX 01 01:13:64
  TRACK 43 AUDIO
    TITLE "1Q_j_2142-2155_43"
    INDEX 01 01:14:36
  TRACK 44 AUDIO
    TITLE "1Q_j_2142-2155_44"
    INDEX 01 01:15:55
  TRACK 45 AUDIO
    TITLE "1Q_j_2142-2155_45"
    INDEX 01 01:15:69
  TRACK 46 AUDIO
    TITLE "1Q_j_2142-2155_46"
    INDEX 01 01:17:33
  TRACK 47 AUDIO
    TITLE "1Q_j_2142-2155_47"
    INDEX 01 01:17:40
  TRACK 48 AUDIO
    TITLE "1Q_j_2142-2155_48"
    INDEX 01 01:24:17
  TRACK 49 AUDIO
    TITLE "1Q_j_2142-2155_49"
    INDEX 01 01:24:64
  TRACK 50 AUDIO
    TITLE "1Q_j_2142-2155_50"
    INDEX 01 01:26:43
  TRACK 51 AUDIO
    TITLE "1Q_j_2142-2155_51"
    INDEX 01 01:26:53
  TRACK 52 AUDIO
    TITLE "1Q_j_2142-2155_52"
    INDEX 01 01:28:48
  TRACK 53 AUDIO
    TITLE "1Q_j_2142-2155_53"
    INDEX 01 01:28:56
  TRACK 54 AUDIO
    TITLE "1Q_j_2142-2155_54"
    INDEX 01 01:32:58
  TRACK 55 AUDIO
    TITLE "1Q_j_2142-2155_55"
    INDEX 01 01:33:28
  TRACK 56 AUDIO
    TITLE "1Q_j_2142-2155_56"
    INDEX 01 01:34:45
  TRACK 57 AUDIO
    TITLE "1Q_j_2142-2155_57"
    INDEX 01 01:34:54
  TRACK 58 AUDIO
    TITLE "1Q_j_2142-2155_58"
    INDEX 01 01:37:14
  TRACK 59 AUDIO
    TITLE "1Q_j_2142-2155_59"
    INDEX 01 01:37:22
  TRACK 60 AUDIO
    TITLE "1Q_j_2142-2155_60"
    INDEX 01 01:44:10
  TRACK 61 AUDIO
    TITLE "1Q_j_2142-2155_61"
    INDEX 01 01:44:57
  TRACK 62 AUDIO
    TITLE "1Q_j_2142-2155_62"
    INDEX 01 01:46:11
  TRACK 63 AUDIO
    TITLE "1Q_j_2142-2155_63"
    INDEX 01 01:46:20
  TRACK 64 AUDIO
    TITLE "1Q_j_2142-2155_64"
    INDEX 01 01:48:06
  TRACK 65 AUDIO
    TITLE "1Q_j_2142-2155_65"
    INDEX 01 01:48:12
  TRACK 66 AUDIO
    TITLE "1Q_j_2142-2155_66"
    INDEX 01 01:54:02
  TRACK 67 AUDIO
    TITLE "1Q_j_2142-2155_67"
    INDEX 01 01:54:49
  TRACK 68 AUDIO
    TITLE "1Q_j_2142-2155_68"
    INDEX 01 01:55:55
  TRACK 69 AUDIO
    TITLE "1Q_j_2142-2155_69"
    INDEX 01 01:55:63
  TRACK 70 AUDIO
    TITLE "1Q_j_2142-2155_70"
    INDEX 01 01:57:58
  TRACK 71 AUDIO
    TITLE "1Q_j_2142-2155_71"
    INDEX 01 01:57:65
  TRACK 72 AUDIO
    TITLE "1Q_j_2142-2155_72"
    INDEX 01 02:02:33
  TRACK 73 AUDIO
    TITLE "1Q_j_2142-2155_73"
    INDEX 01 02:03:05
  TRACK 74 AUDIO
    TITLE "1Q_j_2142-2155_74"
    INDEX 01 02:04:20
  TRACK 75 AUDIO
    TITLE "1Q_j_2142-2155_75"
    INDEX 01 02:04:30
  TRACK 76 AUDIO
    TITLE "1Q_j_2142-2155_76"
    INDEX 01 02:08:20
  TRACK 77 AUDIO
    TITLE "1Q_j_2142-2155_77"
    INDEX 01 02:08:28
  TRACK 78 AUDIO
    TITLE "1Q_j_2142-2155_78"
    INDEX 01 02:15:57
  TRACK 79 AUDIO
    TITLE "1Q_j_2142-2155_79"
    INDEX 01 02:16:27
  TRACK 80 AUDIO
    TITLE "1Q_j_2142-2155_80"
    INDEX 01 02:17:66
  TRACK 81 AUDIO
    TITLE "1Q_j_2142-2155_81"
    INDEX 01 02:17:74
  TRACK 82 AUDIO
    TITLE "1Q_j_2142-2155_82"
    INDEX 01 02:20:31
  TRACK 83 AUDIO
    TITLE "1Q_j_2142-2155_83"
    INDEX 01 02:20:39
  TRACK 84 AUDIO
    TITLE "1Q_j_2142-2155_84"
    INDEX 01 02:26:22
